<svg width="69" height="69" viewBox="0 0 69 69" fill="none" xmlns="http://www.w3.org/2000/svg">
<path d="M33.3777 2.50079L2.45608 33.4224C1.67504 34.2034 1.67503 35.4697 2.45608 36.2508L33.3777 67.1724C34.1587 67.9534 35.425 67.9534 36.2061 67.1724L67.1277 36.2508C67.9087 35.4697 67.9087 34.2034 67.1277 33.4224L36.2061 2.50079C35.425 1.71974 34.1587 1.71974 33.3777 2.50079Z" stroke="white" stroke-width="2" stroke-miterlimit="10"/>
<mask id="path-2-inside-1_2_1093" fill="white">
<path d="M26.9798 38.4403C26.9798 39.202 26.7894 39.8553 26.4085 40.4003C26.0335 40.9393 25.5032 41.3524 24.8177 41.6395C24.1321 41.9266 23.3177 42.0702 22.3743 42.0702C21.8997 42.0702 21.4456 42.0438 21.012 41.9911C20.5843 41.9442 20.1859 41.8739 19.8167 41.7802C19.4476 41.6864 19.1136 41.5692 18.8148 41.4286V39.7235C19.3011 39.9227 19.8636 40.1102 20.5023 40.286C21.1409 40.4559 21.8001 40.5409 22.4798 40.5409C23.0716 40.5409 23.5667 40.4618 23.9651 40.3036C24.3694 40.1395 24.6741 39.911 24.8792 39.618C25.0843 39.3251 25.1868 38.9735 25.1868 38.5634C25.1868 38.1532 25.0872 37.8104 24.888 37.535C24.6888 37.2538 24.3724 36.996 23.9388 36.7616C23.511 36.5272 22.9485 36.2782 22.2513 36.0145C21.765 35.8387 21.3226 35.6395 20.9241 35.4169C20.5257 35.1884 20.18 34.9276 19.887 34.6346C19.5999 34.3417 19.3773 33.9989 19.2191 33.6063C19.0609 33.2079 18.9818 32.7509 18.9818 32.2352C18.9818 31.5262 19.1546 30.9198 19.5003 30.4159C19.8519 29.912 20.3411 29.5282 20.9681 29.2645C21.595 28.995 22.3216 28.8602 23.1478 28.8602C23.8275 28.8602 24.4603 28.9276 25.0462 29.0624C25.638 29.1971 26.2005 29.3817 26.7337 29.6161L26.1624 31.1102C25.6644 30.9052 25.1634 30.7382 24.6595 30.6093C24.1556 30.4803 23.6341 30.4159 23.095 30.4159C22.597 30.4159 22.1751 30.4891 21.8294 30.6356C21.4896 30.7821 21.2288 30.9901 21.0472 31.2596C20.8714 31.5292 20.7835 31.8485 20.7835 32.2177C20.7835 32.6337 20.8773 32.9794 21.0648 33.2548C21.2523 33.5302 21.5482 33.7792 21.9525 34.0018C22.3568 34.2245 22.8841 34.4618 23.5345 34.7137C24.2669 34.995 24.888 35.2938 25.3978 35.6102C25.9134 35.9266 26.306 36.3075 26.5755 36.7528C26.845 37.1981 26.9798 37.7606 26.9798 38.4403Z"/>
</mask>
<path d="M26.9798 38.4403C26.9798 39.202 26.7894 39.8553 26.4085 40.4003C26.0335 40.9393 25.5032 41.3524 24.8177 41.6395C24.1321 41.9266 23.3177 42.0702 22.3743 42.0702C21.8997 42.0702 21.4456 42.0438 21.012 41.9911C20.5843 41.9442 20.1859 41.8739 19.8167 41.7802C19.4476 41.6864 19.1136 41.5692 18.8148 41.4286V39.7235C19.3011 39.9227 19.8636 40.1102 20.5023 40.286C21.1409 40.4559 21.8001 40.5409 22.4798 40.5409C23.0716 40.5409 23.5667 40.4618 23.9651 40.3036C24.3694 40.1395 24.6741 39.911 24.8792 39.618C25.0843 39.3251 25.1868 38.9735 25.1868 38.5634C25.1868 38.1532 25.0872 37.8104 24.888 37.535C24.6888 37.2538 24.3724 36.996 23.9388 36.7616C23.511 36.5272 22.9485 36.2782 22.2513 36.0145C21.765 35.8387 21.3226 35.6395 20.9241 35.4169C20.5257 35.1884 20.18 34.9276 19.887 34.6346C19.5999 34.3417 19.3773 33.9989 19.2191 33.6063C19.0609 33.2079 18.9818 32.7509 18.9818 32.2352C18.9818 31.5262 19.1546 30.9198 19.5003 30.4159C19.8519 29.912 20.3411 29.5282 20.9681 29.2645C21.595 28.995 22.3216 28.8602 23.1478 28.8602C23.8275 28.8602 24.4603 28.9276 25.0462 29.0624C25.638 29.1971 26.2005 29.3817 26.7337 29.6161L26.1624 31.1102C25.6644 30.9052 25.1634 30.7382 24.6595 30.6093C24.1556 30.4803 23.6341 30.4159 23.095 30.4159C22.597 30.4159 22.1751 30.4891 21.8294 30.6356C21.4896 30.7821 21.2288 30.9901 21.0472 31.2596C20.8714 31.5292 20.7835 31.8485 20.7835 32.2177C20.7835 32.6337 20.8773 32.9794 21.0648 33.2548C21.2523 33.5302 21.5482 33.7792 21.9525 34.0018C22.3568 34.2245 22.8841 34.4618 23.5345 34.7137C24.2669 34.995 24.888 35.2938 25.3978 35.6102C25.9134 35.9266 26.306 36.3075 26.5755 36.7528C26.845 37.1981 26.9798 37.7606 26.9798 38.4403Z" fill="black"/>
<path d="M26.4085 40.4003L25.5889 39.8274L25.5876 39.8292L26.4085 40.4003ZM21.012 41.9911L21.1328 40.9983L21.121 40.997L21.012 41.9911ZM18.8148 41.4286H17.8148V42.0632L18.389 42.3334L18.8148 41.4286ZM18.8148 39.7235L19.1938 38.7981L17.8148 38.2332V39.7235H18.8148ZM20.5023 40.286L20.2369 41.2502L20.2451 41.2524L20.5023 40.286ZM23.9651 40.3036L24.3342 41.233L24.3412 41.2302L23.9651 40.3036ZM24.888 37.535L24.0719 38.1131L24.0778 38.1212L24.888 37.535ZM23.9388 36.7616L23.4582 37.6386L23.4633 37.6413L23.9388 36.7616ZM22.2513 36.0145L22.605 35.0792L22.5981 35.0766L22.5912 35.0741L22.2513 36.0145ZM20.9241 35.4169L20.4266 36.2844L20.4363 36.2898L20.9241 35.4169ZM19.887 34.6346L19.1728 35.3346L19.1799 35.3418L19.887 34.6346ZM19.2191 33.6063L18.2896 33.9754L18.2915 33.9801L19.2191 33.6063ZM19.5003 30.4159L18.6802 29.8437L18.6757 29.8502L19.5003 30.4159ZM20.9681 29.2645L21.3558 30.1864L21.363 30.1832L20.9681 29.2645ZM25.0462 29.0624L24.8221 30.0369L24.8242 30.0374L25.0462 29.0624ZM26.7337 29.6161L27.6678 29.9732L28.0078 29.0838L27.1361 28.7006L26.7337 29.6161ZM26.1624 31.1102L25.7817 32.0349L26.7301 32.4255L27.0965 31.4674L26.1624 31.1102ZM21.8294 30.6356L21.4393 29.7149L21.4336 29.7173L21.8294 30.6356ZM21.0472 31.2596L20.2179 30.7008L20.2137 30.7071L20.2096 30.7134L21.0472 31.2596ZM23.5345 34.7137L23.1733 35.6462L23.176 35.6473L23.5345 34.7137ZM25.3978 35.6102L24.8704 36.4599L24.8747 36.4626L25.3978 35.6102ZM26.9798 38.4403H25.9798C25.9798 39.028 25.8358 39.4741 25.5889 39.8274L26.4085 40.4003L27.2282 40.9731C27.7429 40.2366 27.9798 39.3761 27.9798 38.4403H26.9798ZM26.4085 40.4003L25.5876 39.8292C25.335 40.1924 24.9654 40.4935 24.4314 40.7172L24.8177 41.6395L25.204 42.5619C26.0411 42.2113 26.732 41.6863 27.2294 40.9713L26.4085 40.4003ZM24.8177 41.6395L24.4314 40.7172C23.8963 40.9412 23.2194 41.0702 22.3743 41.0702V42.0702V43.0702C23.416 43.0702 24.368 42.912 25.204 42.5619L24.8177 41.6395ZM22.3743 42.0702V41.0702C21.9366 41.0702 21.523 41.0459 21.1328 40.9984L21.012 41.9911L20.8913 42.9838C21.3682 43.0418 21.8628 43.0702 22.3743 43.0702V42.0702ZM21.012 41.9911L21.121 40.997C20.7337 40.9546 20.3816 40.8919 20.0629 40.8109L19.8167 41.7802L19.5706 42.7494C19.9902 42.8559 20.4349 42.9338 20.9031 42.9851L21.012 41.9911ZM19.8167 41.7802L20.0629 40.8109C19.7464 40.7305 19.4737 40.6335 19.2406 40.5238L18.8148 41.4286L18.389 42.3334C18.7535 42.5049 19.1488 42.6423 19.5706 42.7494L19.8167 41.7802ZM18.8148 41.4286H19.8148V39.7235H18.8148H17.8148V41.4286H18.8148ZM18.8148 39.7235L18.4357 40.6489C18.9672 40.8666 19.569 41.0663 20.2369 41.2502L20.5023 40.286L20.7676 39.3219C20.1581 39.1541 19.635 38.9789 19.1938 38.7981L18.8148 39.7235ZM20.5023 40.286L20.2451 41.2524C20.9701 41.4453 21.7158 41.5409 22.4798 41.5409V40.5409V39.5409C21.8844 39.5409 21.3118 39.4666 20.7594 39.3196L20.5023 40.286ZM22.4798 40.5409V41.5409C23.1532 41.5409 23.7828 41.4519 24.3342 41.233L23.9651 40.3036L23.5961 39.3742C23.3506 39.4717 22.99 39.5409 22.4798 39.5409V40.5409ZM23.9651 40.3036L24.3412 41.2302C24.8846 41.0097 25.3606 40.6742 25.6984 40.1915L24.8792 39.618L24.06 39.0446C23.9877 39.1479 23.8543 39.2694 23.5891 39.377L23.9651 40.3036ZM24.8792 39.618L25.6984 40.1915C26.0379 39.7066 26.1868 39.1475 26.1868 38.5634H25.1868H24.1868C24.1868 38.7995 24.1307 38.9436 24.06 39.0446L24.8792 39.618ZM25.1868 38.5634H26.1868C26.1868 37.9872 26.0445 37.4277 25.6982 36.9489L24.888 37.535L24.0778 38.1212C24.1299 38.1932 24.1868 38.3192 24.1868 38.5634H25.1868ZM24.888 37.535L25.704 36.957C25.3862 36.5083 24.9289 36.1601 24.4143 35.8819L23.9388 36.7616L23.4633 37.6413C23.8158 37.8319 23.9914 37.9993 24.072 38.1131L24.888 37.535ZM23.9388 36.7616L24.4193 35.8846C23.9354 35.6194 23.3256 35.3517 22.605 35.0792L22.2513 36.0145L21.8976 36.9499C22.5714 37.2047 23.0867 37.435 23.4582 37.6386L23.9388 36.7616ZM22.2513 36.0145L22.5912 35.0741C22.1493 34.9144 21.7573 34.7369 21.412 34.5439L20.9241 35.4169L20.4363 36.2898C20.8879 36.5422 21.3806 36.7631 21.9114 36.955L22.2513 36.0145ZM20.9241 35.4169L21.4216 34.5494C21.0916 34.3601 20.8183 34.1517 20.5941 33.9275L19.887 34.6346L19.1799 35.3418C19.5417 35.7035 19.9597 36.0166 20.4266 36.2843L20.9241 35.4169ZM19.887 34.6346L20.6012 33.9347C20.4089 33.7384 20.2573 33.5074 20.1466 33.2325L19.2191 33.6063L18.2915 33.9801C18.4972 34.4904 18.791 34.9449 19.1728 35.3346L19.887 34.6346ZM19.2191 33.6063L20.1485 33.2373C20.0453 32.9775 19.9818 32.6495 19.9818 32.2352H18.9818H17.9818C17.9818 32.8522 18.0764 33.4383 18.2896 33.9754L19.2191 33.6063ZM18.9818 32.2352H19.9818C19.9818 31.6949 20.1109 31.2935 20.3249 30.9816L19.5003 30.4159L18.6757 29.8502C18.1983 30.5461 17.9818 31.3576 17.9818 32.2352H18.9818ZM19.5003 30.4159L20.3204 30.9881C20.5524 30.6556 20.8838 30.3848 21.3558 30.1863L20.9681 29.2645L20.5804 28.3427C19.7984 28.6716 19.1513 29.1684 18.6802 29.8437L19.5003 30.4159ZM20.9681 29.2645L21.363 30.1832C21.8419 29.9774 22.4294 29.8602 23.1478 29.8602V28.8602V27.8602C22.2138 27.8602 21.3482 28.0126 20.5731 28.3458L20.9681 29.2645ZM23.1478 28.8602V29.8602C23.7616 29.8602 24.3184 29.9211 24.8221 30.0369L25.0462 29.0624L25.2704 28.0878C24.6021 27.9341 23.8933 27.8602 23.1478 27.8602V28.8602ZM25.0462 29.0624L24.8242 30.0374C25.3567 30.1587 25.8586 30.3238 26.3313 30.5316L26.7337 29.6161L27.1361 28.7006C26.5424 28.4397 25.9193 28.2356 25.2682 28.0873L25.0462 29.0624ZM26.7337 29.6161L25.7997 29.259L25.2284 30.7531L26.1624 31.1102L27.0965 31.4674L27.6678 29.9732L26.7337 29.6161ZM26.1624 31.1102L26.5432 30.1856C26.0034 29.9633 25.4581 29.7813 24.9073 29.6405L24.6595 30.6093L24.4117 31.5781C24.8687 31.695 25.3253 31.847 25.7817 32.0349L26.1624 31.1102ZM24.6595 30.6093L24.9073 29.6405C24.3195 29.4901 23.7146 29.4159 23.095 29.4159V30.4159V31.4159C23.5536 31.4159 23.9916 31.4706 24.4117 31.5781L24.6595 30.6093ZM23.095 30.4159V29.4159C22.5044 29.4159 21.9416 29.502 21.4393 29.7149L21.8294 30.6356L22.2196 31.5564C22.4086 31.4763 22.6895 31.4159 23.095 31.4159V30.4159ZM21.8294 30.6356L21.4336 29.7173C20.9429 29.9288 20.5209 30.2512 20.2179 30.7008L21.0472 31.2596L21.8764 31.8185C21.9367 31.729 22.0363 31.6354 22.2252 31.5539L21.8294 30.6356ZM21.0472 31.2596L20.2096 30.7134C19.9129 31.1683 19.7835 31.6838 19.7835 32.2177H20.7835H21.7835C21.7835 32.0132 21.8299 31.89 21.8848 31.8059L21.0472 31.2596ZM20.7835 32.2177H19.7835C19.7835 32.7843 19.9124 33.3391 20.2382 33.8176L21.0648 33.2548L21.8914 32.692C21.8421 32.6196 21.7835 32.4831 21.7835 32.2177H20.7835ZM21.0648 33.2548L20.2382 33.8176C20.5416 34.2632 20.9781 34.6069 21.47 34.8778L21.9525 34.0018L22.4349 33.1259C22.1182 32.9515 21.963 32.7971 21.8914 32.692L21.0648 33.2548ZM21.9525 34.0018L21.47 34.8778C21.9278 35.1299 22.5 35.3854 23.1733 35.6462L23.5345 34.7137L23.8957 33.7813C23.2682 33.5382 22.7857 33.3191 22.4349 33.1259L21.9525 34.0018ZM23.5345 34.7137L23.176 35.6473C23.8665 35.9124 24.4276 36.185 24.8704 36.4599L25.3978 35.6102L25.9251 34.7606C25.3484 34.4026 24.6674 34.0776 23.893 33.7802L23.5345 34.7137ZM25.3978 35.6102L24.8747 36.4626C25.2765 36.7091 25.5455 36.9823 25.72 37.2706L26.5755 36.7528L27.431 36.235C27.0665 35.6327 26.5502 35.1442 25.9208 34.7579L25.3978 35.6102ZM26.5755 36.7528L25.72 37.2706C25.8703 37.5189 25.9798 37.8886 25.9798 38.4403H26.9798H27.9798C27.9798 37.6327 27.8198 36.8774 27.431 36.235L26.5755 36.7528Z" fill="white" mask="url(#path-2-inside-1_2_1093)"/>
<mask id="path-4-inside-2_2_1093" fill="white">
<path d="M49.9332 41.8944H47.7711L41.1178 31.3651H41.0475C41.0651 31.6815 41.0856 32.0302 41.109 32.411C41.1324 32.786 41.15 33.1815 41.1617 33.5975C41.1793 34.0077 41.191 34.4237 41.1969 34.8456V41.8944H39.5446V29.0448H41.6891L48.316 39.5214H48.3776C48.3658 39.2635 48.3512 38.9442 48.3336 38.5634C48.316 38.1825 48.2985 37.7811 48.2809 37.3593C48.2692 36.9315 48.2633 36.5272 48.2633 36.1464V29.0448H49.9332V41.8944Z"/>
</mask>
<path d="M49.9332 41.8944H47.7711L41.1178 31.3651H41.0475C41.0651 31.6815 41.0856 32.0302 41.109 32.411C41.1324 32.786 41.15 33.1815 41.1617 33.5975C41.1793 34.0077 41.191 34.4237 41.1969 34.8456V41.8944H39.5446V29.0448H41.6891L48.316 39.5214H48.3776C48.3658 39.2635 48.3512 38.9442 48.3336 38.5634C48.316 38.1825 48.2985 37.7811 48.2809 37.3593C48.2692 36.9315 48.2633 36.5272 48.2633 36.1464V29.0448H49.9332V41.8944Z" fill="black"/>
<path d="M49.9332 41.8944V42.8944H50.9332V41.8944H49.9332ZM47.7711 41.8944L46.9257 42.4286L47.2201 42.8944H47.7711V41.8944ZM41.1178 31.3651L41.9632 30.8309L41.6688 30.3651H41.1178V31.3651ZM41.0475 31.3651V30.3651H39.9904L40.049 31.4206L41.0475 31.3651ZM41.109 32.411L40.1109 32.4724L40.111 32.4734L41.109 32.411ZM41.1617 33.5975L40.1621 33.6257L40.1623 33.633L40.1627 33.6404L41.1617 33.5975ZM41.1969 34.8456H42.197L42.1968 34.8317L41.1969 34.8456ZM41.1969 41.8944V42.8944H42.1969V41.8944H41.1969ZM39.5446 41.8944H38.5446V42.8944H39.5446V41.8944ZM39.5446 29.0448V28.0448H38.5446V29.0448H39.5446ZM41.6891 29.0448L42.5342 28.5102L42.2398 28.0448H41.6891V29.0448ZM48.316 39.5214L47.4709 40.0559L47.7653 40.5214H48.316V39.5214ZM48.3776 39.5214V40.5214H49.4241L49.3765 39.476L48.3776 39.5214ZM48.2809 37.3593L47.2813 37.3866L47.2815 37.3938L47.2818 37.4009L48.2809 37.3593ZM48.2633 29.0448V28.0448H47.2633V29.0448H48.2633ZM49.9332 29.0448H50.9332V28.0448H49.9332V29.0448ZM49.9332 41.8944V40.8944H47.7711V41.8944V42.8944H49.9332V41.8944ZM47.7711 41.8944L48.6165 41.3602L41.9632 30.8309L41.1178 31.3651L40.2724 31.8993L46.9257 42.4286L47.7711 41.8944ZM41.1178 31.3651V30.3651H41.0475V31.3651V32.3651H41.1178V31.3651ZM41.0475 31.3651L40.049 31.4206C40.0667 31.7393 40.0874 32.09 40.1109 32.4724L41.109 32.411L42.1071 32.3496C42.0838 31.9703 42.0634 31.6237 42.0459 31.3096L41.0475 31.3651ZM41.109 32.411L40.111 32.4734C40.1336 32.8359 40.1507 33.2199 40.1621 33.6257L41.1617 33.5975L42.1613 33.5694C42.1493 33.1431 42.1313 32.7362 42.1071 32.3486L41.109 32.411ZM41.1617 33.5975L40.1627 33.6404C40.1798 34.0406 40.1913 34.447 40.197 34.8595L41.1969 34.8456L42.1968 34.8317C42.1908 34.4004 42.1788 33.9748 42.1608 33.5547L41.1617 33.5975ZM41.1969 34.8456H40.1969V41.8944H41.1969H42.1969V34.8456H41.1969ZM41.1969 41.8944V40.8944H39.5446V41.8944V42.8944H41.1969V41.8944ZM39.5446 41.8944H40.5446V29.0448H39.5446H38.5446V41.8944H39.5446ZM39.5446 29.0448V30.0448H41.6891V29.0448V28.0448H39.5446V29.0448ZM41.6891 29.0448L40.844 29.5794L47.4709 40.0559L48.316 39.5214L49.1612 38.9868L42.5342 28.5102L41.6891 29.0448ZM48.316 39.5214V40.5214H48.3776V39.5214V38.5214H48.316V39.5214ZM48.3776 39.5214L49.3765 39.476C49.3648 39.2178 49.3501 38.8982 49.3326 38.5172L48.3336 38.5634L47.3347 38.6095C47.3523 38.9902 47.3669 39.3093 47.3786 39.5668L48.3776 39.5214ZM48.3336 38.5634L49.3326 38.5172C49.3151 38.138 49.2975 37.7382 49.28 37.3176L48.2809 37.3593L47.2818 37.4009C47.2994 37.8241 47.317 38.227 47.3347 38.6095L48.3336 38.5634ZM48.2809 37.3593L49.2805 37.3319C49.269 36.9122 49.2633 36.5171 49.2633 36.1464H48.2633H47.2633C47.2633 36.5374 47.2693 36.9509 47.2813 37.3866L48.2809 37.3593ZM48.2633 36.1464H49.2633V29.0448H48.2633H47.2633V36.1464H48.2633ZM48.2633 29.0448V30.0448H49.9332V29.0448V28.0448H48.2633V29.0448ZM49.9332 29.0448H48.9332V41.8944H49.9332H50.9332V29.0448H49.9332Z" fill="white" mask="url(#path-4-inside-2_2_1093)"/>
<path d="M32.846 24.8848V44.1989" stroke="white" stroke-width="2" stroke-miterlimit="10"/>
</svg>
